inDegrees=no
num_controls=7
num_derivatives=13
num_iterations=128
num_multipliers=7
num_parameters=0
num_slacks=7
num_states=26
objective=5.907424
objective_accelerations=0.573563
objective_balance=0.027263
objective_effort=0.570630
objective_height=4.641008
objective_ligament=0.094959
solver_duration=1452.330665
status=Solve_Succeeded
success=true
DataType=double
version=3
OpenSimVersion=4.4-2022-07-23-0e9fedc
endheader
time	/jointset/ground_pelvis/pelvis_tilt/value	/jointset/ground_pelvis/pelvis_tx/value	/jointset/ground_pelvis/pelvis_ty/value	/jointset/hip_l/hip_flexion_l/value	/jointset/hip_l/hip_adduction_l/value	/jointset/hip_l/hip_rotation_l/value	/jointset/back/lumbar_extension/value	/jointset/patellofemoral_l/patellar_flexion_l/value	/jointset/knee_l/knee_flexion_l/value	/jointset/knee_l/knee_adduction_l/value	/jointset/knee_l/knee_rotation_l/value	/jointset/ankle_l/ankle_angle_l/value	/jointset/subtalar_l/subtalar_angle_l/value	/jointset/ground_pelvis/pelvis_tilt/speed	/jointset/ground_pelvis/pelvis_tx/speed	/jointset/ground_pelvis/pelvis_ty/speed	/jointset/hip_l/hip_flexion_l/speed	/jointset/hip_l/hip_adduction_l/speed	/jointset/hip_l/hip_rotation_l/speed	/jointset/back/lumbar_extension/speed	/jointset/patellofemoral_l/patellar_flexion_l/speed	/jointset/knee_l/knee_flexion_l/speed	/jointset/knee_l/knee_adduction_l/speed	/jointset/knee_l/knee_rotation_l/speed	/jointset/ankle_l/ankle_angle_l/speed	/jointset/subtalar_l/subtalar_angle_l/speed	/forceset/tau_hip_flexion_l	/forceset/tau_hip_adduction_l	/forceset/tau_hip_rotation_l	/forceset/tau_knee_flexion_l	/forceset/tau_ankle_angle_l	/forceset/tau_subtalar_angle_l	/forceset/tau_lumbar_extension	lambda_cid13_p0	lambda_cid13_p1	lambda_cid13_p2	lambda_cid13_p3	lambda_cid13_p4	lambda_cid13_p5	lambda_cid14_p0	/jointset/ground_pelvis/pelvis_tilt/accel	/jointset/ground_pelvis/pelvis_tx/accel	/jointset/ground_pelvis/pelvis_ty/accel	/jointset/hip_l/hip_flexion_l/accel	/jointset/hip_l/hip_adduction_l/accel	/jointset/hip_l/hip_rotation_l/accel	/jointset/back/lumbar_extension/accel	/jointset/patellofemoral_l/patellar_flexion_l/accel	/jointset/knee_l/knee_flexion_l/accel	/jointset/knee_l/knee_adduction_l/accel	/jointset/knee_l/knee_rotation_l/accel	/jointset/ankle_l/ankle_angle_l/accel	/jointset/subtalar_l/subtalar_angle_l/accel	gamma_cid13_p0	gamma_cid13_p1	gamma_cid13_p2	gamma_cid13_p3	gamma_cid13_p4	gamma_cid13_p5	gamma_cid14_p0
1.5	-0.06358150910078497	-0.05253738808749921	0.8421606485050098	0.7841848101533231	-0.3179937006279928	-0.1464635269914978	-0.8041193231663177	0.7301317242205227	0.7301317242202201	-0.1041166588198279	-0.1745138102676755	0.06167172619134106	-0.00363171076915382	0.5133088807074968	0.317019656066991	0.4574158231549388	-2.264430837753722	0.08301037361512928	-0.6092443268780642	0.8281601095539962	-1.872043683846296	-1.872043683846244	-0.1403723790662607	-0.0006593682346268104	-0.2252809155848001	0.02018605019054811	-0.2422785309578574	0.01252564964225599	-0.004074434327550648	-0.2038089014660185	0.1243427285503344	0.04691070680666674	0.3044168932705631	-2.475352423844712	-21.44808463713532	4.687809337175718	-13.1370370238495	-668.9786500169457	-77.41494748076862	-16.96629412235123	0.15846398740995	0.8349677310937629	-0.6127639645473095	-0.9245561859879594	0.4420635970344808	-0.2795002135423904	2.110990415479118	-0.8526425186494246	-0.8526425186494204	-0.2768020244957732	0.0425056843266349	-0.05793467388579067	0.4419090021990453	1.629480656076996e-07	1.046462853389565e-06	-4.554010072342407e-07	7.003543027534965e-08	2.937850167838684e-07	8.311376579447951e-08	2.063644258958162e-07
1.51	-0.05844087353633375	-0.04932565382787315	0.8467033307707227	0.761496132161951	-0.317142282278019	-0.1525709963821591	-0.7957334463149867	0.7113707229741328	0.7113707229737519	-0.1055348067591353	-0.1745202959541023	0.0594163236995264	-0.003408520025038551	0.5147455690995617	0.3253015806570312	0.4510317388555973	-2.27303349975565	0.08726878009580424	-0.6121768976743576	0.8489263811741796	-1.879910024279927	-1.879910024279943	-0.1432626903041242	-0.0006247011797314245	-0.2257340919880053	0.02446558492210503	-0.2337826473402491	0.01194995609822535	-0.003895859257118581	-0.2006560830752582	0.1230456661437547	0.04604011186171578	0.296701461601632	-2.627756683702637	-21.11151425935046	4.71206752763475	-12.8847667432976	-664.184103396255	-77.35241167544901	-17.60994993008487	0.1253689850288831	0.8209945304916596	-0.6645093707940418	-0.787433339344167	0.416840686807844	-0.2890706774070423	2.04611360444745	-0.7166853657537789	-0.7166853657637875	-0.2957031005559912	-0.01412082832814794	-0.02913890650718202	0.4227643912500894	1.135196908130461e-07	1.30518999710566e-06	-1.239295792262609e-07	1.293719486768138e-07	2.812602308079481e-07	1.068502889215881e-07	1.913905160588156e-07
1.52	-0.05328805154405036	-0.04603186238083897	0.8511795164518068	0.7387295651240373	-0.3162484575607069	-0.1587055785136916	-0.7871425731336308	0.6925384472112255	0.6925384472111255	-0.1069819692958262	-0.1745260485792314	0.05715836348707862	-0.003142176197084841	0.5157461662886778	0.3334310935486131	0.4441165062293458	-2.280008647039468	0.09149164710559204	-0.6146668750601265	0.8691593755607261	-1.886298587114921	-1.886298587115005	-0.1461752986270605	-0.0005127559007866688	-0.2257924597099932	0.02881666695829201	-0.2252867637229412	0.0113742625539396	-0.003717284184030696	-0.1975032646846668	0.1217486037371544	0.04516951691660274	0.2889860299325023	-2.780304723332425	-20.77618635627002	4.737971667504268	-12.66387992946643	-659.4165922707389	-77.31493801275306	-18.24646339343821	0.07124574681994171	0.8044853914020422	-0.7189936299293362	-0.5990532423659212	0.4349557028568365	-0.1909815314372252	2.004334968751741	-0.5570869989221814	-0.5570869989221798	-0.2812614415102651	0.05796132913724049	0.0210270623576731	0.4562184631252851	7.468702715391452e-08	1.454840127083279e-06	8.698226393751378e-08	1.724705761756799e-07	2.569817773528645e-07	1.21845822443998e-07	1.790082504481478e-07
1.53	-0.04812748633838254	-0.04265764800565513	0.8555839181941969	0.7159016732658656	-0.3153125012362293	-0.1648630643010205	-0.7783520932088996	0.6736498915611995	0.6736498915610578	-0.1084580122707922	-0.1745303982213819	0.05490184346778393	-0.002831851995671498	0.5162941632684624	0.3413742407110457	0.4366806515388806	-2.285287571785017	0.09569205556044691	-0.6167552577475033	0.8888284039770853	-1.891159005146432	-1.891159005146541	-0.1490342726741963	-0.000342544602721416	-0.2254497368462319	0.03325738765642491	-0.2168282441923531	0.0108542046864821	-0.003589817284420613	-0.1941730383767515	0.120024272831507	0.04419252088629355	0.2812083675721369	-3.084548443415501	-20.36889901517563	4.753330399452067	-12.22448845541122	-654.747073793235	-77.15182335827409	-18.86650901327049	0.0356619968155912	0.7836406929546729	-0.7683198886181343	-0.4499979362596303	0.4112056958128968	-0.2063702559495694	1.931955966633457	-0.4125213900571676	-0.412521390060711	-0.2880794021910497	-0.001253311864905017	0.05021041807479529	0.4391171374967235	4.711230657627469e-08	1.488595929963768e-06	1.697995482043219e-07	1.983164445905355e-07	2.202150522011701e-07	1.275540545114159e-07	1.693796068279586e-07
1.54	-0.04296362409830105	-0.03920511989598819	0.8599114736896779	0.6930294549910589	-0.3143348163714608	-0.1710391546388813	-0.7693681691623009	0.6547203312939861	0.6547203312936418	-0.1099626177894675	-0.1745326066190391	0.05265061378105992	-0.002476896934409381	0.5164055731785696	0.3490938404452317	0.4287472568477079	-2.288873930354969	0.09983735517585521	-0.6183877851773704	0.9078481999356457	-1.894499510569614	-1.894499510569747	-0.1518878073563762	-8.450698493580676e-05	-0.2247343931949003	0.03774283892813067	-0.208369724661929	0.01033414681903066	-0.00346235038603148	-0.190842812068835	0.1182999419258523	0.04321552485598245	0.2734307052116423	-3.393872542284591	-19.96144541258145	4.769488640658781	-11.79157301755765	-650.1667795481848	-77.01377472000966	-19.46353717211954	-0.01607166711579359	0.7597759057527795	-0.818501630070792	-0.2605400072464537	0.423933934967657	-0.09981047993515066	1.874488477191878	-0.2531044772562794	-0.2531044772562593	-0.2801735685190795	0.0755265930816242	0.09555121987184477	0.465164577839982	2.798109457666644e-08	1.540112723156639e-06	2.324613181390213e-07	2.157093343228604e-07	2.047271710679973e-07	1.356451279721115e-07	1.64215118489143e-07
1.55	-0.037800908709448	-0.03567660384467163	0.8641572692393016	0.6701299944570429	-0.3133159138075475	-0.1772295936285577	-0.7601976086877297	0.6357650472747656	0.6357650472747164	-0.111495457118297	-0.1745319993501009	0.05040840753305666	-0.00207680828861531	0.5160555826942024	0.3565619737552468	0.4203340873024117	-2.290712204756178	0.103935467436623	-0.6196283902951943	0.9261245929739517	-1.896289264681711	-1.896289264681777	-0.1546647961925578	0.0002176948482593945	-0.223643186930198	0.04228507921012859	-0.1994722738450933	0.009488636694461988	-0.003424535402315578	-0.1880247296576817	0.1171470832516178	0.04213297963448067	0.2652663267361182	-3.52836610098978	-19.53351194136738	4.776383583344165	-11.40285387157253	-645.6197625340399	-76.88769141742603	-20.03363983520491	-0.05676486956613496	0.7332681576853585	-0.8643457284109228	-0.0995901591348512	0.4013188345070852	-0.1253036396374771	1.783319416264518	-0.10173942542117	-0.1017394254109469	-0.2738605202508725	0.009338680869552161	0.1255022871494937	0.4499861435440572	1.857827289522447e-08	1.612093266057253e-06	2.719004302562923e-07	2.233629225296613e-07	2.137562189126852e-07	1.46481649125062e-07	1.64194113409301e-07
